<svg width="141" height="176" viewBox="0 0 141 176" fill="none" xmlns="http://www.w3.org/2000/svg">
<g clip-path="url(#clip0_404_10407)">
<path fill-rule="evenodd" clip-rule="evenodd" d="M70 140C108.66 140 140 108.66 140 70C140 31.3401 108.66 0 70 0C31.3401 0 0 31.3401 0 70C0 108.66 31.3401 140 70 140ZM70 130C103.137 130 130 103.137 130 70C130 36.8629 103.137 10 70 10C36.8629 10 10 36.8629 10 70C10 103.137 36.8629 130 70 130Z" fill="#D4467F"/>
<circle cx="70" cy="70" r="20" fill="#D4467F"/>
<circle cx="104" cy="98" r="8" fill="#D4467F"/>
<path d="M22 72C22 56 32 23.6 72 22" stroke="#D4467F" stroke-width="8" stroke-linecap="round"/>
<path d="M1.64062 170H6.65625V151.109H1.64062V170ZM28.1719 150.934L20.0625 162.043L11.9531 150.934H9.9375V170H14.9531V162.512L20.0508 169.684H20.0859L25.1719 162.512V170H30.1875V150.934H28.1719ZM46.5234 170H52.0195L43.2305 150.875H40.8516L32.0742 170H37.5586L38.5195 167.797H45.5742L46.5234 170ZM40.1016 164.129L42.0469 159.652L43.9805 164.129H40.1016ZM71.4141 159.148H61.7227V162.887H66.0469C65.9766 164.691 64.3477 165.793 62.0625 165.793C58.5703 165.793 56.4492 163.215 56.4492 160.566C56.4492 157.648 58.9219 155.34 61.7344 155.34C63.1289 155.34 64.6406 155.973 65.6953 156.957L68.4727 153.148C66.9141 151.707 64.1367 150.688 61.7344 150.652C55.875 150.652 51.3281 155.188 51.3281 160.578C51.3281 165.969 55.8633 170.445 61.8633 170.445C67.2305 170.445 71.5664 166.73 71.5664 160.988C71.5664 160.391 71.5078 159.781 71.4141 159.148ZM74.0391 170H79.0547V151.109H74.0391V170ZM93.6328 151.086V160.297L83.9531 150.922H82.3359V170.012H87.3516V160.777L97.0664 170.188H98.6602V151.086H93.6328ZM101.953 170H106.969V151.109H101.953V170ZM122.496 155.773V151.062H110.25V170.023H115.207V163.027H121.207V158.832H115.207V155.773H122.496ZM129.07 170H134.051V161.844L139.887 151.109H134.191L131.566 156.582L128.93 151.109H123.246L129.07 161.844V170Z" fill="#D4467F"/>
</g>
<defs>
<clipPath id="clip0_404_10407">
<rect width="141" height="176" fill="white"/>
</clipPath>
</defs>
</svg>
